<svg width="97" height="97" viewBox="0 0 97 97" fill="none" xmlns="http://www.w3.org/2000/svg">
<path d="M79.3496 17.5361H17.6746C16.0741 17.5361 14.7646 18.8456 14.7646 20.4461V55.5078H82.2596V20.4461C82.2596 18.8456 80.9501 17.5361 79.3496 17.5361ZM34.4817 21.2121H36.3386C37.0055 21.2121 37.5511 21.7578 37.5511 22.4246C37.5511 23.0915 37.0055 23.6371 36.3386 23.6371H34.4817C33.8149 23.6371 33.2692 23.0915 33.2692 22.4246C33.2692 21.7578 33.8149 21.2121 34.4817 21.2121ZM41.4917 30.2926C42.1586 30.2926 42.7042 30.8382 42.7042 31.5051C42.7042 32.172 42.1586 32.7176 41.4917 32.7176H30.5169C29.85 32.7176 29.3044 32.172 29.3044 31.5051C29.3044 30.8382 29.85 30.2926 30.5169 30.2926H41.4917ZM36.0042 36.7504C36.0042 37.4173 35.4586 37.9629 34.7917 37.9629H30.5168C29.8499 37.9629 29.3043 37.4173 29.3043 36.7504C29.3043 36.0835 29.8499 35.5379 30.5168 35.5379H34.7917C35.4586 35.5379 36.0042 36.0835 36.0042 36.7504ZM27.2067 21.2121H29.0636C29.7305 21.2121 30.2761 21.7578 30.2761 22.4246C30.2761 23.0915 29.7305 23.6371 29.0636 23.6371H27.2067C26.5399 23.6371 25.9942 23.0915 25.9942 22.4246C25.9942 21.7578 26.5399 21.2121 27.2067 21.2121ZM26.1034 31.5051C26.1034 32.172 25.5577 32.7176 24.8909 32.7176H20.0409C19.374 32.7176 18.8284 32.172 18.8284 31.5051C18.8284 30.8382 19.374 30.2926 20.0409 30.2926H24.8909C25.5577 30.2926 26.1034 30.8382 26.1034 31.5051ZM26.1034 36.7504C26.1034 37.4173 25.5577 37.9629 24.8909 37.9629H23.2557C22.5889 37.9629 22.0432 37.4173 22.0432 36.7504C22.0432 36.0835 22.5889 35.5379 23.2557 35.5379H24.8909C25.5577 35.5379 26.1034 36.0835 26.1034 36.7504ZM19.9317 21.2121H21.7886C22.4555 21.2121 23.0011 21.7578 23.0011 22.4246C23.0011 23.0915 22.4555 23.6371 21.7886 23.6371H19.9317C19.2649 23.6371 18.7192 23.0915 18.7192 22.4246C18.7192 21.7578 19.2649 21.2121 19.9317 21.2121ZM18.8284 41.9958C18.8284 41.3289 19.374 40.7833 20.0409 40.7833H31.4419C32.1087 40.7833 32.6544 41.3289 32.6544 41.9958C32.6544 42.6626 32.1087 43.2083 31.4419 43.2083H20.0409C19.374 43.2083 18.8284 42.6626 18.8284 41.9958ZM24.8909 48.4535H23.2557C22.5889 48.4535 22.0432 47.9079 22.0432 47.241C22.0432 46.5742 22.5889 46.0285 23.2557 46.0285H24.8909C25.5577 46.0285 26.1034 46.5742 26.1034 47.241C26.1034 47.9079 25.5577 48.4535 24.8909 48.4535ZM34.7917 48.4535H30.5168C29.8499 48.4535 29.3043 47.9079 29.3043 47.241C29.3043 46.5742 29.8499 46.0285 30.5168 46.0285H34.7917C35.4586 46.0285 36.0042 46.5742 36.0042 47.241C36.0042 47.9079 35.4586 48.4535 34.7917 48.4535ZM48.6697 48.4535H40.8057C40.1389 48.4535 39.5933 47.9079 39.5933 47.241C39.5933 46.5742 40.1389 46.0285 40.8057 46.0285H48.6696C49.3365 46.0285 49.8821 46.5742 49.8821 47.241C49.8821 47.9079 49.3366 48.4535 48.6697 48.4535ZM48.6697 43.2083H37.2168C36.5499 43.2083 36.0042 42.6626 36.0042 41.9958C36.0042 41.3289 36.5499 40.7833 37.2168 40.7833H48.6696C49.3365 40.7833 49.8821 41.3289 49.8821 41.9958C49.8821 42.6626 49.3366 43.2083 48.6697 43.2083ZM48.6697 37.9629H40.5667C39.8999 37.9629 39.3542 37.4173 39.3542 36.7504C39.3542 36.0835 39.8999 35.5379 40.5667 35.5379H48.6697C49.3366 35.5379 49.8822 36.0835 49.8822 36.7504C49.8822 37.4173 49.3366 37.9629 48.6697 37.9629ZM60.6257 42.9319C61.0972 43.4034 61.0972 44.1751 60.6257 44.6467C60.1541 45.1182 59.3825 45.1182 58.9109 44.6467L54.4127 40.1484C53.9412 39.6769 53.9412 38.9052 54.4127 38.4336L58.911 33.9353C59.3825 33.4638 60.1541 33.4638 60.6258 33.9353C61.0973 34.4069 61.0973 35.1785 60.6258 35.6501L56.9849 39.291L60.6257 42.9319ZM69.374 32.2893L65.2139 46.9546C65.0319 47.5962 64.358 47.9721 63.7165 47.7902C63.0749 47.6082 62.6989 46.9343 62.8809 46.2928L67.041 31.6274C67.223 30.9859 67.8969 30.6099 68.5384 30.7919C69.18 30.9738 69.556 31.6477 69.374 32.2893ZM77.8422 40.1484L73.344 44.6467C72.8725 45.1182 72.1009 45.1182 71.6292 44.6467C71.1577 44.1752 71.1577 43.4035 71.6292 42.9319L75.2701 39.291L71.6292 35.6501C71.1577 35.1786 71.1577 34.407 71.6292 33.9353C72.1009 33.4638 72.8724 33.4638 73.344 33.9353L77.8422 38.4336C78.3137 38.9051 78.3137 39.6768 77.8422 40.1484Z" fill="#C0B4FA"/>
<path d="M59.2291 73.9202H37.7958C36.8067 73.9202 35.9976 74.7294 35.9976 75.7184V79.464H61.0273V75.7184C61.0273 74.7294 60.2182 73.9202 59.2291 73.9202Z" fill="#C0B4FA"/>
<path d="M48.6578 66.3762C49.5904 66.3099 50.2928 65.5001 50.2265 64.5674C50.1602 63.6347 49.3504 62.9323 48.4177 62.9986C47.4851 63.0649 46.7827 63.8748 46.849 64.8075C46.9153 65.7402 47.7251 66.4425 48.6578 66.3762Z" fill="#C0B4FA"/>
<path d="M14.7402 58.0563L14.7624 64.1173C14.7684 65.7178 16.0826 67.0224 17.6831 67.0166L27.6655 66.98L27.6758 69.7732C27.6794 70.7622 28.4916 71.5684 29.4806 71.5648L67.5938 71.4253C68.5828 71.4217 69.3892 70.6095 69.3855 69.6204L69.3753 66.8273L79.3577 66.7907C80.9582 66.7849 82.2628 65.4705 82.257 63.87L82.2348 57.8091L14.7402 58.0563ZM52.6813 64.9983C52.6813 65.3577 52.3899 65.649 52.0306 65.649C51.9961 65.649 51.9625 65.6455 51.9295 65.6404C51.8456 65.9397 51.7229 66.2228 51.5676 66.4842C51.5904 66.5016 51.6127 66.5201 51.6335 66.5409C51.8877 66.7951 51.8877 67.207 51.6335 67.4612L51.2344 67.8603C50.9802 68.1145 50.5683 68.1145 50.3141 67.8603C50.2864 67.8326 50.2623 67.8027 50.2406 67.7717C49.9956 67.9073 49.7328 68.0146 49.4564 68.089C49.465 68.131 49.4694 68.1744 49.4694 68.2189C49.4694 68.5783 49.1781 68.8696 48.8188 68.8696H48.2542C47.8948 68.8696 47.6035 68.5782 47.6035 68.2189C47.6035 68.1744 47.6081 68.131 47.6165 68.089C47.3211 68.0094 47.041 67.8924 46.7818 67.7432C46.7552 67.787 46.7238 67.8286 46.6859 67.8664C46.4318 68.1206 46.0198 68.1206 45.7657 67.8664L45.3665 67.4673C45.1124 67.2131 45.1124 66.8012 45.3665 66.547C45.4035 66.5101 45.4441 66.4791 45.4868 66.4529C45.3376 66.1958 45.2201 65.9181 45.1394 65.6251C45.0844 65.6402 45.0266 65.6489 44.9668 65.6489C44.6074 65.6489 44.3161 65.3576 44.3161 64.9982V64.4337C44.3161 64.0743 44.6075 63.783 44.9668 63.783C45.0213 63.783 45.074 63.7905 45.1246 63.8031C45.2006 63.509 45.3138 63.2298 45.4586 62.9707C45.4088 62.9425 45.3617 62.9078 45.3193 62.8653C45.0652 62.6112 45.0652 62.1992 45.3193 61.9451L45.7185 61.5459C45.9726 61.2918 46.3846 61.2918 46.6387 61.5459C46.6742 61.5815 46.7043 61.6203 46.7299 61.6612C47.0036 61.4975 47.3013 61.3699 47.6165 61.2848C47.608 61.2428 47.6035 61.1994 47.6035 61.1549C47.6035 60.7955 47.8949 60.5042 48.2542 60.5042H48.8188C49.1782 60.5042 49.4694 60.7956 49.4694 61.1549C49.4694 61.1993 49.4649 61.2428 49.4564 61.2848C49.753 61.3648 50.0341 61.4823 50.2941 61.6322C50.3143 61.6043 50.3362 61.5772 50.3615 61.552C50.6156 61.2979 51.0276 61.2979 51.2817 61.552L51.6808 61.9512C51.935 62.2053 51.935 62.6173 51.6808 62.8714C51.6549 62.8974 51.6268 62.9201 51.5978 62.9409C51.7484 63.2042 51.8658 63.4889 51.9447 63.7893C51.9729 63.7855 52.0015 63.783 52.0307 63.783C52.3901 63.783 52.6814 64.0743 52.6814 64.4337V64.9983H52.6813Z" fill="#C0B4FA"/>
</svg>
