<svg width="18" height="17" viewBox="0 0 18 17" fill="none" xmlns="http://www.w3.org/2000/svg">
<path d="M9 0C4.0305 0 0 3.90209 0 8.71488C0 12.5654 2.5785 15.832 6.15525 16.9846C6.6045 17.0652 6.75 16.795 6.75 16.5655V14.9431C4.2465 15.4704 3.72525 13.9148 3.72525 13.9148C3.31575 12.9075 2.7255 12.6395 2.7255 12.6395C1.90875 12.0984 2.78775 12.1101 2.78775 12.1101C3.6915 12.1711 4.167 13.0084 4.167 13.0084C4.9695 14.3403 6.27225 13.9554 6.786 13.7325C6.86625 13.1696 7.0995 12.7847 7.3575 12.5676C5.35875 12.3461 3.25725 11.5988 3.25725 8.26026C3.25725 7.30816 3.609 6.53108 4.18425 5.92104C4.09125 5.70099 3.783 4.81425 4.272 3.6145C4.272 3.6145 5.028 3.38065 6.74775 4.50777C7.4655 4.31459 8.235 4.218 9 4.21437C9.765 4.218 10.5352 4.31459 11.2545 4.50777C12.9727 3.38065 13.7272 3.6145 13.7272 3.6145C14.217 4.81497 13.9087 5.70171 13.8158 5.92104C14.3932 6.53108 14.742 7.30888 14.742 8.26026C14.742 11.6075 12.6368 12.3446 10.6327 12.5603C10.9552 12.8305 11.25 13.3606 11.25 14.174V16.5655C11.25 16.7972 11.394 17.0695 11.8507 16.9839C15.4245 15.8299 18 12.564 18 8.71488C18 3.90209 13.9703 0 9 0Z" fill="white"/>
</svg>
