<svg width="42" height="42" viewBox="0 0 42 42" fill="none" xmlns="http://www.w3.org/2000/svg">
<g clip-path="url(#clip0_3_32)">
<path d="M41.3907 21.2203C40.5784 20.4078 39.2611 20.4078 38.4485 21.2203L33.5751 26.0936C32.7608 17.8022 26.6194 10.6422 18.0408 8.93578C11.7264 7.67987 5.21409 9.62997 0.620824 14.1525C-0.197911 14.9587 -0.208174 16.276 0.597939 17.0947C1.40419 17.9134 2.72141 17.9237 3.54 17.1174C7.15018 13.5629 12.2673 12.0301 17.2288 13.0168C24.0063 14.365 28.8478 20.0456 29.444 26.6062L24.0576 21.2199C23.2453 20.4075 21.9279 20.4074 21.1154 21.22C20.3029 22.0325 20.3029 23.3497 21.1154 24.1622L29.782 32.8287C30.1882 33.235 30.7207 33.438 31.253 33.438C31.7853 33.438 32.3179 33.235 32.7242 32.8287L41.3904 24.1626C42.2032 23.3501 42.2032 22.0328 41.3907 21.2203Z" fill="#9581FA"/>
</g>
<defs>
<clipPath id="clip0_3_32">
<rect width="42" height="42" fill="white"/>
</clipPath>
</defs>
</svg>
