<svg width="79" height="59" viewBox="0 0 79 59" fill="none" xmlns="http://www.w3.org/2000/svg">
<path fill-rule="evenodd" clip-rule="evenodd" d="M5.34896 0H73.651C76.5955 0 79 2.41793 79 5.37892V53.6211C79 56.5756 76.5955 59 73.651 59H5.34896C2.40446 59 0 56.5756 0 53.6211V5.37892C0 2.41793 2.40446 0 5.34896 0ZM35.0125 46.6906L20.5729 37.8916V32.3123L35.0125 23.5134V30.1465L26.2369 35.1181L35.0125 40.0962V46.6906ZM43.9875 46.6906L58.4271 37.8916V32.3123L43.9875 23.5134V30.1465L52.7631 35.1181L43.9875 40.0962V46.6906ZM75.8433 15.0571H3.40096V54.1447C3.40096 54.5585 3.56169 54.9206 3.83171 55.1985C4.10173 55.4701 4.46818 55.6317 4.87964 55.6317H74.339C74.7504 55.6317 75.1104 55.4701 75.3869 55.1985C75.6633 54.9206 75.8176 54.5585 75.8176 54.1447V15.0571H75.8433ZM68.5592 6.04482C70.0186 6.04482 71.2016 7.23439 71.2016 8.70195C71.2016 10.1695 70.0186 11.3591 68.5592 11.3591C67.0999 11.3591 65.9169 10.1695 65.9169 8.70195C65.9233 7.23439 67.1063 6.04482 68.5592 6.04482ZM50.6608 6.04482C52.1202 6.04482 53.3031 7.23439 53.3031 8.70195C53.3031 10.1695 52.1202 11.3591 50.6608 11.3591C49.2014 11.3591 48.0185 10.1695 48.0185 8.70195C48.0185 7.23439 49.2014 6.04482 50.6608 6.04482ZM59.61 6.04482C61.0694 6.04482 62.2524 7.23439 62.2524 8.70195C62.2524 10.1695 61.0694 11.3591 59.61 11.3591C58.1506 11.3591 56.9677 10.1695 56.9677 8.70195C56.9677 7.23439 58.1506 6.04482 59.61 6.04482Z" fill="#C0B4FA"/>
</svg>
