<svg width="57" height="57" viewBox="0 0 57 57" fill="none" xmlns="http://www.w3.org/2000/svg">
<path d="M55.6155 3.63369L53.3676 1.38571C52.474 0.491993 51.286 0 50.0225 0C48.7589 0 47.571 0.491993 46.6775 1.38548L44.9755 3.08753L44.7531 2.8651C44.3097 2.42181 43.5909 2.4217 43.1472 2.8651L7.05626 38.9561L7.05751 38.9566C6.95407 39.0599 6.86925 39.1828 6.81123 39.3216L3.50682 47.2379L0.0886467 55.4271C-0.0887115 55.8519 0.00802933 56.3418 0.333565 56.6673C0.550777 56.8846 0.84134 57 1.13667 57C1.28394 57 1.43246 56.9714 1.57394 56.9123L9.76319 53.4941C9.76341 53.4939 9.76364 53.4938 9.76375 53.4937L17.6792 50.1896C17.8181 50.1317 17.941 50.0469 18.0443 49.9435L18.0447 49.9447L54.1359 13.8537C54.3488 13.6408 54.4685 13.3519 54.4685 13.0508C54.4685 12.7497 54.3488 12.4608 54.1359 12.2479L53.9135 12.0255L55.6155 10.3236C57.4598 8.47913 57.4598 5.47812 55.6155 3.63369ZM3.24851 53.7524L4.94999 49.6762L7.32479 52.0509L3.24851 53.7524ZM9.5906 51.1052L5.89571 47.4104L8.25428 41.76L15.241 48.7466L9.5906 51.1052ZM17.242 47.5359L9.46501 39.759L40.3311 8.89278L48.1081 16.6697L17.242 47.5359ZM49.714 15.064L41.937 7.28702L43.9502 5.27385L51.7271 13.0508L49.714 15.064ZM54.0096 8.71758L52.3242 10.403L46.5979 4.67672L48.2834 2.99125C48.7479 2.52673 49.3655 2.27091 50.0225 2.27091C50.6795 2.27091 51.2973 2.52673 51.7617 2.99125L54.0095 5.23911C54.9685 6.19823 54.9685 7.75857 54.0096 8.71758Z" fill="#C0B4FA"/>
<path d="M28.9833 22.6407L12.5611 39.063C12.1177 39.5064 12.1177 40.2253 12.5611 40.6689C12.7828 40.8906 13.0734 41.0014 13.3639 41.0014C13.6545 41.0014 13.9451 40.8905 14.1668 40.6689L30.5892 24.2464C31.0326 23.803 31.0326 23.084 30.5892 22.6407C30.1456 22.1973 29.4269 22.1973 28.9833 22.6407Z" fill="#C0B4FA"/>
<path d="M34.0924 17.5314L32.0244 19.5994C31.581 20.0428 31.581 20.7618 32.0244 21.2053C32.2462 21.427 32.5368 21.5379 32.8273 21.5379C33.1179 21.5379 33.4084 21.427 33.6302 21.2053L35.6982 19.1373C36.1417 18.6939 36.1417 17.9749 35.6983 17.5314C35.2548 17.0882 34.5361 17.0882 34.0924 17.5314Z" fill="#C0B4FA"/>
</svg>
